<?xml version="1.0" standalone="no"?>
<!DOCTYPE svg PUBLIC "-//W3C//DTD SVG 20010904//EN"
 "http://www.w3.org/TR/2001/REC-SVG-20010904/DTD/svg10.dtd">
<svg version="1.0" xmlns="http://www.w3.org/2000/svg"
 width="1254.000000pt" height="1254.000000pt" viewBox="0 0 1254.000000 1254.000000"
 preserveAspectRatio="xMidYMid meet">

<g transform="translate(0.000000,1254.000000) scale(0.100000,-0.100000)"
fill="#000000" stroke="none">
<path d="M0 6270 l0 -6270 6270 0 6270 0 0 6270 0 6270 -6270 0 -6270 0 0
-6270z m3824 3292 c168 -61 298 -191 357 -358 15 -39 23 -93 27 -159 5 -121
-19 -226 -75 -320 l-35 -60 588 -584 c324 -321 668 -661 764 -757 l175 -173
45 30 c111 76 283 145 420 170 36 6 119 11 185 11 220 -1 410 -58 590 -177
l70 -47 757 763 757 762 -18 26 c-198 281 -95 687 215 844 83 42 150 57 254
57 166 0 281 -48 400 -169 164 -166 214 -395 131 -606 -88 -227 -288 -365
-526 -365 -108 0 -186 18 -276 64 l-67 33 -127 -131 c-70 -72 -389 -394 -709
-716 -319 -322 -601 -606 -624 -632 l-44 -46 51 -63 c59 -73 142 -228 177
-331 72 -213 72 -476 0 -683 -48 -138 -81 -202 -172 -326 l-34 -47 735 -727
735 -727 47 30 c94 60 184 84 310 83 163 -1 293 -59 410 -184 132 -142 181
-333 134 -519 -25 -97 -58 -161 -120 -236 -210 -252 -633 -258 -854 -12 -89
99 -147 249 -147 380 0 83 26 187 66 269 l36 73 -153 155 c-242 242 -1309
1288 -1319 1291 -4 2 -32 -15 -62 -38 -178 -135 -423 -207 -668 -197 -211 9
-384 65 -554 179 l-89 59 -121 -118 c-66 -65 -339 -335 -606 -599 -267 -265
-545 -539 -618 -610 l-132 -129 34 -67 c158 -309 13 -683 -310 -800 -73 -27
-241 -36 -323 -18 -270 58 -460 318 -438 599 19 231 169 422 393 497 71 23 89
26 194 22 131 -5 199 -25 288 -84 l55 -36 731 731 731 731 -43 56 c-100 133
-175 296 -207 454 -34 163 -19 381 37 545 46 133 139 295 220 381 l29 31 -716
720 c-394 397 -735 737 -758 756 l-43 35 -77 -38 c-273 -133 -585 -49 -747
201 -52 81 -81 172 -87 279 -15 258 148 493 401 577 94 31 258 29 350 -5z
m6666 -112 c12 -16 19 -30 16 -30 -2 0 -14 14 -26 30 -12 17 -19 30 -16 30 2
0 14 -13 26 -30z m-4 -42 c25 -35 50 -72 56 -83 13 -25 0 -11 -33 35 -14 19
-38 52 -53 73 -16 20 -26 37 -22 37 3 0 27 -28 52 -62z m76 -60 c55 -79 60
-88 54 -88 -3 0 -28 34 -56 75 -28 41 -49 75 -46 75 2 0 24 -28 48 -62z m48
-119 c15 -28 5 -23 -15 7 -9 15 -12 23 -6 20 6 -4 16 -16 21 -27z m113 -126
c357 -568 622 -1247 736 -1888 129 -729 116 -1374 -40 -2083 -186 -845 -563
-1612 -1130 -2297 -112 -135 -466 -488 -614 -612 -330 -275 -653 -487 -1040
-683 -602 -304 -1265 -493 -1940 -551 -182 -16 -600 -16 -790 0 -319 26 -641
80 -939 155 -1404 358 -2654 1338 -3336 2616 -336 631 -532 1272 -612 2005
-21 190 -18 829 5 1028 18 158 74 507 82 516 8 8 5 -21 -14 -129 -10 -58 -22
-134 -25 -170 -3 -36 6 -3 19 75 38 214 45 201 11 -20 -49 -317 -70 -829 -47
-1128 80 -1046 439 -2007 1056 -2825 283 -377 657 -749 1040 -1036 791 -593
1658 -931 2645 -1032 201 -21 631 -29 825 -15 902 61 1777 359 2535 864 315
210 531 388 806 662 350 350 631 721 864 1138 603 1086 811 2312 595 3512 -59
327 -173 719 -302 1040 -85 213 -279 603 -397 798 -52 86 -93 157 -91 157 1 0
22 -26 46 -57 63 -85 78 -96 29 -23 -34 51 -61 100 -57 100 3 0 39 -53 80
-117z m-9602 -1749 c-5 -21 -9 -30 -10 -19 -1 24 10 67 15 62 3 -2 0 -22 -5
-43z m13 -63 c-4 -23 -9 -40 -11 -37 -3 3 -2 23 2 46 4 23 9 39 11 37 3 -2 2
-23 -2 -46z"/>
<path d="M3516 9479 c-113 -27 -244 -134 -295 -243 -43 -90 -54 -144 -49 -244
8 -146 71 -266 186 -351 139 -104 346 -121 503 -40 100 51 197 175 233 298 68
232 -79 499 -315 572 -66 20 -193 24 -263 8z"/>
<path d="M8760 9467 c-126 -43 -208 -112 -268 -225 -28 -54 -55 -145 -34 -113
12 17 22 -9 27 -75 2 -25 8 -51 13 -57 5 -7 13 -28 16 -47 12 -58 28 -93 67
-140 20 -25 44 -60 53 -77 9 -18 20 -33 25 -33 8 0 44 -28 118 -90 12 -10 24
-16 27 -13 3 3 18 1 33 -5 74 -27 71 -25 38 -32 -25 -6 -20 -8 25 -9 114 -2
232 44 320 125 103 96 155 228 148 374 -4 76 -9 97 -44 171 -24 48 -60 103
-85 129 -121 125 -317 173 -479 117z"/>
<path d="M8758 8573 c7 -3 16 -2 19 1 4 3 -2 6 -13 5 -11 0 -14 -3 -6 -6z"/>
<path d="M8798 8563 c7 -3 16 -2 19 1 4 3 -2 6 -13 5 -11 0 -14 -3 -6 -6z"/>
<path d="M6120 7085 c-225 -45 -433 -191 -544 -380 -106 -182 -143 -408 -97
-599 81 -339 346 -579 691 -626 160 -22 308 4 470 83 93 45 116 61 200 146
105 106 162 196 204 321 98 295 17 623 -207 836 -91 88 -161 134 -259 173
-146 58 -314 75 -458 46z"/>
<path d="M3527 4119 c-131 -31 -271 -150 -322 -274 -37 -91 -46 -223 -20 -311
62 -215 275 -362 493 -340 229 23 409 202 429 426 6 62 -8 150 -31 201 -9 19
-13 24 -10 11 11 -43 -34 -2 -53 48 -14 36 -101 140 -118 140 -3 0 -29 12 -60
26 -61 29 -73 50 -22 40 62 -11 0 14 -71 29 -74 16 -157 18 -215 4z"/>
<path d="M8756 4110 c-171 -61 -289 -201 -317 -378 -49 -300 204 -568 509
-538 120 12 218 61 304 153 80 86 118 187 118 314 0 196 -118 370 -298 440
-84 33 -236 37 -316 9z"/>
<path d="M3855 4073 c6 -5 34 -27 63 -47 29 -21 66 -58 83 -82 32 -47 48 -59
28 -22 -19 35 -112 124 -150 143 -19 9 -29 13 -24 8z"/>
<path d="M4046 3877 c3 -10 9 -15 12 -12 3 3 0 11 -7 18 -10 9 -11 8 -5 -6z"/>
<path d="M1052 6905 c0 -16 2 -22 5 -12 2 9 2 23 0 30 -3 6 -5 -1 -5 -18z"/>
<path d="M1033 6705 c0 -27 2 -38 4 -22 2 15 2 37 0 50 -2 12 -4 0 -4 -28z"/>
</g>
</svg>
